<mxfile host="app.diagrams.net" modified="2021-06-27T06:44:24.957Z" agent="5.0 (Macintosh; Intel Mac OS X 10_14_3) AppleWebKit/537.36 (KHTML, like Gecko) Chrome/91.0.4472.114 Safari/537.36" etag="XpOdujT-_tnyD2-wYUL0" version="14.7.7" type="github">
  <diagram id="3228e29e-7158-1315-38df-8450db1d8a1d" name="Page-1">
    <mxGraphModel dx="946" dy="490" grid="0" gridSize="10" guides="1" tooltips="1" connect="1" arrows="1" fold="1" page="1" pageScale="1" pageWidth="800" pageHeight="300" background="#EFF1F3" math="0" shadow="1">
      <root>
        <mxCell id="0" />
        <mxCell id="1" parent="0" />
        <mxCell id="sDVxpu07TYHX5QJczvl2-7" style="edgeStyle=orthogonalEdgeStyle;rounded=0;orthogonalLoop=1;jettySize=auto;html=1;exitX=1;exitY=0.5;exitDx=0;exitDy=0;exitPerimeter=0;strokeWidth=3;" parent="1" source="_KJd5dzx4qh3lxpyMWcO-2" target="sDVxpu07TYHX5QJczvl2-2" edge="1">
          <mxGeometry relative="1" as="geometry" />
        </mxCell>
        <mxCell id="_KJd5dzx4qh3lxpyMWcO-2" value="" style="fontColor=#0066CC;verticalAlign=top;verticalLabelPosition=bottom;labelPosition=center;align=center;html=1;outlineConnect=0;gradientColor=none;gradientDirection=north;strokeWidth=2;shape=mxgraph.networks.pc;fillColor=#67AB9F;fontSize=30;" parent="1" vertex="1">
          <mxGeometry x="48" y="122" width="74.65" height="54" as="geometry" />
        </mxCell>
        <mxCell id="T-5VQnCJckOgUX1Wp16H-28" value="客户端" style="text;html=1;strokeColor=none;fillColor=none;align=center;verticalAlign=middle;whiteSpace=wrap;rounded=0;fontSize=22;" parent="1" vertex="1">
          <mxGeometry x="48" y="186" width="76.18" height="20" as="geometry" />
        </mxCell>
        <mxCell id="aH1-eks404bDhsACtXEq-2" value="" style="fontColor=#0066CC;verticalAlign=top;verticalLabelPosition=bottom;labelPosition=center;align=center;html=1;outlineConnect=0;gradientColor=none;gradientDirection=north;strokeWidth=2;shape=mxgraph.networks.server;fillColor=#4A919B;" parent="1" vertex="1">
          <mxGeometry x="673" y="117" width="51.5" height="64" as="geometry" />
        </mxCell>
        <mxCell id="aH1-eks404bDhsACtXEq-3" value="baidu.com" style="text;html=1;strokeColor=none;fillColor=none;align=center;verticalAlign=middle;whiteSpace=wrap;rounded=0;fontSize=22;" parent="1" vertex="1">
          <mxGeometry x="666" y="191" width="74" height="20" as="geometry" />
        </mxCell>
        <mxCell id="sDVxpu07TYHX5QJczvl2-8" style="edgeStyle=orthogonalEdgeStyle;rounded=0;orthogonalLoop=1;jettySize=auto;html=1;exitX=1;exitY=0.5;exitDx=0;exitDy=0;exitPerimeter=0;entryX=0.06;entryY=0.5;entryDx=0;entryDy=0;entryPerimeter=0;strokeWidth=3;" parent="1" source="sDVxpu07TYHX5QJczvl2-2" target="sDVxpu07TYHX5QJczvl2-5" edge="1">
          <mxGeometry relative="1" as="geometry" />
        </mxCell>
        <mxCell id="sDVxpu07TYHX5QJczvl2-2" value="" style="fontColor=#0066CC;verticalAlign=top;verticalLabelPosition=bottom;labelPosition=center;align=center;html=1;outlineConnect=0;gradientColor=none;gradientDirection=north;strokeWidth=2;shape=mxgraph.networks.router;fillColor=#535E80;" parent="1" vertex="1">
          <mxGeometry x="179" y="138.49" width="71.33" height="21.4" as="geometry" />
        </mxCell>
        <mxCell id="sDVxpu07TYHX5QJczvl2-13" style="edgeStyle=orthogonalEdgeStyle;rounded=0;orthogonalLoop=1;jettySize=auto;html=1;exitX=0.91;exitY=0.5;exitDx=0;exitDy=0;exitPerimeter=0;entryX=0;entryY=0.5;entryDx=0;entryDy=0;entryPerimeter=0;strokeWidth=3;" parent="1" source="sDVxpu07TYHX5QJczvl2-5" target="sDVxpu07TYHX5QJczvl2-12" edge="1">
          <mxGeometry relative="1" as="geometry" />
        </mxCell>
        <mxCell id="sDVxpu07TYHX5QJczvl2-5" value="&lt;font style=&quot;font-size: 22px&quot; color=&quot;#eff1f3&quot;&gt;互联网&lt;/font&gt;" style="html=1;outlineConnect=0;gradientColor=none;gradientDirection=north;strokeWidth=2;shape=mxgraph.networks.cloud;fontColor=#ffffff;strokeColor=none;fillColor=#535E80;" parent="1" vertex="1">
          <mxGeometry x="292" y="116" width="112.66" height="66.39" as="geometry" />
        </mxCell>
        <mxCell id="sDVxpu07TYHX5QJczvl2-6" value="路由器" style="text;html=1;strokeColor=none;fillColor=none;align=center;verticalAlign=middle;whiteSpace=wrap;rounded=0;fontSize=22;" parent="1" vertex="1">
          <mxGeometry x="176.57000000000005" y="186" width="76.18" height="20" as="geometry" />
        </mxCell>
        <mxCell id="sDVxpu07TYHX5QJczvl2-15" style="edgeStyle=orthogonalEdgeStyle;rounded=0;orthogonalLoop=1;jettySize=auto;html=1;exitX=1;exitY=0.5;exitDx=0;exitDy=0;exitPerimeter=0;strokeWidth=3;" parent="1" source="sDVxpu07TYHX5QJczvl2-9" target="aH1-eks404bDhsACtXEq-2" edge="1">
          <mxGeometry relative="1" as="geometry" />
        </mxCell>
        <mxCell id="sDVxpu07TYHX5QJczvl2-9" value="" style="fontColor=#0066CC;verticalAlign=top;verticalLabelPosition=bottom;labelPosition=center;align=center;html=1;outlineConnect=0;gradientColor=none;gradientDirection=north;strokeWidth=2;shape=mxgraph.networks.router;fillColor=#535E80;" parent="1" vertex="1">
          <mxGeometry x="548.4300000000001" y="138.49" width="71.33" height="21.4" as="geometry" />
        </mxCell>
        <mxCell id="sDVxpu07TYHX5QJczvl2-10" value="路由器" style="text;html=1;strokeColor=none;fillColor=none;align=center;verticalAlign=middle;whiteSpace=wrap;rounded=0;fontSize=22;" parent="1" vertex="1">
          <mxGeometry x="546.0000000000001" y="191" width="76.18" height="20" as="geometry" />
        </mxCell>
        <mxCell id="sDVxpu07TYHX5QJczvl2-14" style="edgeStyle=orthogonalEdgeStyle;rounded=0;orthogonalLoop=1;jettySize=auto;html=1;exitX=1;exitY=0.5;exitDx=0;exitDy=0;exitPerimeter=0;strokeWidth=3;" parent="1" source="sDVxpu07TYHX5QJczvl2-12" target="sDVxpu07TYHX5QJczvl2-9" edge="1">
          <mxGeometry relative="1" as="geometry" />
        </mxCell>
        <mxCell id="sDVxpu07TYHX5QJczvl2-12" value="" style="aspect=fixed;pointerEvents=1;shadow=0;dashed=0;html=1;labelPosition=center;verticalLabelPosition=bottom;verticalAlign=top;align=center;shape=mxgraph.mscae.enterprise.firewall;fillColor=#F19C99;" parent="1" vertex="1">
          <mxGeometry x="448" y="127" width="50" height="44" as="geometry" />
        </mxCell>
        <mxCell id="sDVxpu07TYHX5QJczvl2-16" value="连一下baidu的8080端口" style="shape=callout;whiteSpace=wrap;html=1;perimeter=calloutPerimeter;fillColor=#F19C99;dashed=1;strokeColor=#F19C99;strokeWidth=2;direction=west;size=23;position=0.26;" parent="1" vertex="1">
          <mxGeometry x="90" y="191" width="93" height="70" as="geometry" />
        </mxCell>
        <mxCell id="sDVxpu07TYHX5QJczvl2-17" value="SYN" style="rounded=1;whiteSpace=wrap;html=1;dashed=1;strokeWidth=2;strokeColor=none;fillColor=#4A919B;" parent="1" vertex="1">
          <mxGeometry x="140" y="107" width="50" height="27" as="geometry" />
        </mxCell>
        <mxCell id="sDVxpu07TYHX5QJczvl2-18" value="我可没有开放8080端口，扔掉" style="shape=callout;whiteSpace=wrap;html=1;perimeter=calloutPerimeter;fillColor=#F19C99;dashed=1;strokeColor=#F19C99;strokeWidth=2;direction=west;size=22;position=0.53;base=21;" parent="1" vertex="1">
          <mxGeometry x="380" y="197" width="93" height="71" as="geometry" />
        </mxCell>
        <mxCell id="sDVxpu07TYHX5QJczvl2-19" value="SYN" style="rounded=1;whiteSpace=wrap;html=1;dashed=1;strokeWidth=2;strokeColor=none;fillColor=#4A919B;" parent="1" vertex="1">
          <mxGeometry x="401.5" y="93" width="50" height="27" as="geometry" />
        </mxCell>
        <mxCell id="sDVxpu07TYHX5QJczvl2-27" value="" style="shape=image;html=1;verticalAlign=top;verticalLabelPosition=bottom;labelBackgroundColor=#ffffff;imageAspect=0;aspect=fixed;image=https://cdn4.iconfinder.com/data/icons/evil-icons-user-interface/64/basket-128.png;dashed=1;strokeColor=#F19C99;strokeWidth=2;fillColor=#4A919B;" parent="1" vertex="1">
          <mxGeometry x="521.0000000000001" y="32" width="69" height="69" as="geometry" />
        </mxCell>
        <mxCell id="sDVxpu07TYHX5QJczvl2-28" value="" style="curved=1;endArrow=classic;html=1;strokeWidth=3;dashed=1;strokeColor=#4A919B;" parent="1" edge="1">
          <mxGeometry width="50" height="50" relative="1" as="geometry">
            <mxPoint x="460" y="113" as="sourcePoint" />
            <mxPoint x="525" y="63" as="targetPoint" />
            <Array as="points">
              <mxPoint x="510" y="113" />
              <mxPoint x="460" y="63" />
            </Array>
          </mxGeometry>
        </mxCell>
        <mxCell id="sDVxpu07TYHX5QJczvl2-29" value="防火墙" style="text;html=1;strokeColor=none;fillColor=none;align=center;verticalAlign=middle;whiteSpace=wrap;rounded=0;fontSize=22;" parent="1" vertex="1">
          <mxGeometry x="435.0000000000001" y="191" width="76.18" height="20" as="geometry" />
        </mxCell>
        <mxCell id="RfeN5OD2D1-3FFRr2ZXZ-1" value="" style="curved=1;endArrow=classic;html=1;strokeWidth=3;dashed=1;strokeColor=#4A919B;" edge="1" parent="1">
          <mxGeometry width="50" height="50" relative="1" as="geometry">
            <mxPoint x="207" y="117" as="sourcePoint" />
            <mxPoint x="384" y="107" as="targetPoint" />
            <Array as="points">
              <mxPoint x="257" y="117" />
              <mxPoint x="350" y="97" />
            </Array>
          </mxGeometry>
        </mxCell>
      </root>
    </mxGraphModel>
  </diagram>
</mxfile>
